<svg>
<g>
	<path class="st0" d="M42.5,314.3c-3,0.3-9.6,2.2-12.1,3.4c-0.4,0.2-1,0.5-1.6,0.5c-0.6,0-1-0.5-1-0.9l0-4.6
		c-2.2,3-5.8,5.1-10.7,5.1C7,317.8,0,309.6,0,299.4c0-11.9,8.3-19.3,19.3-19.3c3.1,0,5.9,1,8.4,2.9l0-11.2c0-4.3-1.1-5.1-5-5.5
		c-0.3-0.1-0.6-0.8-0.6-1.4c0-0.6,0.3-1.4,0.6-1.4c4.5-1,10-3.1,13.1-4.9c0.3-0.2,0.8-0.6,1.4-0.6c1,0,1.5,0.4,1.5,0.9
		c-0.2,3.3-0.6,9.5-0.6,13.7l0,34c0,3.9,0.9,4.6,4.4,5.1c0.4,0,0.6,0.8,0.6,1.4C43.2,313.7,42.9,314.2,42.5,314.3z M27.7,289.1
		c0-2.7-3.1-5.5-7.1-5.5c-5.8,0-9.3,4.5-9.3,15.8c0,8.9,3.3,14.1,8.3,14.1c3.6,0,6-2,8-5.2L27.7,289.1z"/>
	<path class="st0" d="M65.1,316.6c-3.4,0-7.1-0.4-10.9-0.4c-3.9,0-7.1,0.4-10.4,0.4c-0.3,0-0.6-0.8-0.6-1.4c0-0.6,0.3-1.4,0.6-1.4
		c4.3-0.5,5.5-1.6,5.5-6.7l0-13.4c0-4.3-1.1-5.1-5-5.5c-0.3-0.1-0.6-0.8-0.6-1.4c0-0.6,0.3-1.4,0.6-1.4c4.5-1,10-3.1,13.2-5
		c0.3-0.2,0.8-0.6,1.4-0.6c1,0,1.4,0.4,1.4,0.9c-0.2,3.3-0.6,9.5-0.6,13.7l0,12.6c0,5.1,1.1,6.3,5.5,6.7c0.3,0.1,0.6,0.9,0.6,1.4
		C65.7,315.8,65.4,316.6,65.1,316.6z M54.2,272.3c-3.1,0-5.8-2.7-5.8-5.9c0-3.1,2.7-5.7,5.8-5.7c3.1,0,5.7,2.6,5.7,5.7
		C59.9,269.7,57.3,272.3,54.2,272.3z"/>
	<path class="st0" d="M105.2,284.2c-4.1,0.5-5.5,1.9-7.5,6.1l-12.5,26.9c-0.2,0.4-0.9,0.6-1.7,0.6c-1,0-1.5-0.3-1.7-0.6l-12.3-26.9
		c-1.7-3.8-3-5.6-7.1-6.1c-0.4-0.1-0.6-0.9-0.6-1.4c0-0.6,0.2-1.4,0.6-1.4c3.4,0,6.5,0.5,10.3,0.5c3.9,0,7.2-0.5,10.6-0.5
		c0.3,0,0.6,0.8,0.6,1.4c0,0.6-0.3,1.4-0.6,1.4c-2.8,0.3-4.1,0.9-4.1,2.4c0,1.1,0.4,2.2,1,3.7l6.6,15.3l6.7-15.3
		c0.6-1.5,1-2.3,1-3.3c0-1.5-1.2-2.5-4.2-2.8c-0.3-0.1-0.6-0.9-0.6-1.4c0-0.6,0.3-1.4,0.6-1.4c3.4,0,4.8,0.5,7.9,0.5
		c1.8,0,4.2-0.5,7-0.5c0.3,0,0.6,0.8,0.6,1.4C105.9,283.4,105.5,284.2,105.2,284.2z"/>
	<path class="st0" d="M138.3,295.7l-22.1,0c-0.1,1-0.2,2.4-0.2,3.9c0,8.9,3.9,12.7,10.2,12.7c4.3,0,9-2.5,11.1-5.2
		c0.2-0.3,1.7,0.7,1.7,1.8c0,0.2-0.1,0.4-0.2,0.6c-2.6,3.8-7.6,8.3-15.3,8.3c-10.6,0-18.7-8.3-18.7-18.5c0-10.5,7.3-19.2,18.7-19.2
		c10.5,0,16.4,7.3,16.4,14.4C139.8,295.3,139.2,295.7,138.3,295.7z M123.6,283.3c-3.9,0-6.3,3.9-7,9.4l8.8-0.2c3.2-0.1,4-0.8,4-2.7
		C129.5,286.2,127.4,283.3,123.6,283.3z"/>
	<path class="st0" d="M185.8,314.4c-3,0.3-9.6,2.2-12.1,3.4c-0.4,0.2-1,0.5-1.6,0.5c-0.6,0-1-0.5-1-0.9l0-4.6
		c-2.2,3-5.8,5.1-10.7,5.1c-10.2,0-17.2-8.2-17.2-18.5c0-11.9,8.3-19.3,19.3-19.3c3.1,0,5.9,1,8.4,2.9l0-11.2c0-4.3-1.1-5.1-5-5.5
		c-0.3-0.1-0.6-0.8-0.6-1.4c0-0.6,0.3-1.4,0.6-1.4c4.5-1,10-3.1,13.1-4.9c0.3-0.2,0.8-0.6,1.4-0.6c1,0,1.5,0.4,1.5,0.9
		c-0.2,3.3-0.6,9.6-0.6,13.7l0,34c0,3.9,0.9,4.6,4.4,5.1c0.4,0,0.6,0.8,0.6,1.4C186.4,313.7,186.2,314.3,185.8,314.4z M170.9,289.2
		c0-2.7-3.1-5.5-7.1-5.5c-5.8,0-9.3,4.5-9.3,15.8c0,8.9,3.3,14.1,8.3,14.1c3.6,0,6-2,8-5.2L170.9,289.2z"/>
	<path class="st0" d="M224.6,313.8c-1.9,2.3-5.8,3.9-9.4,3.9c-3.7,0-6.3-1.9-7.1-4.8c-2.5,3.2-6.5,4.9-11.5,4.9
		c-5.5,0-9.5-3.2-9.5-8.1c0-7.1,10.4-10.8,21.1-13.3l0.2-7.1c0.1-3.5-1.4-5.3-4.2-5.3c-2.4,0-5.1,1.2-5.1,3.6
		c-0.3,5.1-2.5,7.2-5.9,7.2c-2.8,0-4.6-1.8-4.6-4.4c0-4.8,10.1-10.3,18.7-10.3c7.6,0,11.3,4.3,11.1,11.9l-0.5,16
		c-0.1,3.9,1.5,4.5,2.7,4.5c1.1,0,2-0.6,2.8-1.2c0.4-0.3,1.5,0.8,1.5,1.8C224.9,313.4,224.9,313.6,224.6,313.8z M197.7,307.9
		c0,3.2,1.6,5.1,4.3,5.1c2.3,0,5.1-1.3,5.8-4.3l0.3-9.5C201.8,300.7,197.7,303,197.7,307.9z"/>
	<path class="st0" d="M246.6,317.9c-3.6,0-5.8-0.6-7.9-1.8l0,11.7c0,5.1,1,6.3,5.8,6.7c0.3,0.1,0.6,0.9,0.6,1.4
		c0,0.6-0.3,1.4-0.6,1.4c-3.5,0-7.1-0.4-11-0.4c-3.9,0-7.3,0.4-10.7,0.4c-0.3,0-0.6-0.8-0.6-1.4c0-0.6,0.3-1.4,0.6-1.4
		c4.7-0.5,5.5-1.6,5.5-6.7l0-34.4c0-4.3-0.6-5.1-4.5-5.5c-0.3,0-0.6-0.8-0.6-1.4c0-0.6,0.3-1.3,0.6-1.3c3.8-1,9.3-3,12.2-4.8
		c0.3-0.2,0.8-0.6,1.4-0.6c1,0,1.4,0.4,1.4,0.8l-0.3,5.7c2.4-3.3,6.4-6,11-6c10.8,0,16.7,8.2,16.7,18.4
		C266.3,309.3,258.6,317.9,246.6,317.9z M246.1,285.7c-3.6,0-5.1,1.5-7.3,4.7l0,18.3c0,3.7,2.7,6.1,6.9,6.1c7.5,0,9.3-6.9,9.3-15.8
		C255,290.1,251.6,285.7,246.1,285.7z"/>
	<path class="st0" d="M291.7,317.9c-3.6,0-5.8-0.6-7.9-1.8l0,11.7c0,5.1,1,6.3,5.8,6.7c0.3,0.1,0.6,0.9,0.6,1.4
		c0,0.6-0.3,1.4-0.6,1.4c-3.5,0-7.1-0.4-11-0.4s-7.3,0.4-10.7,0.4c-0.3,0-0.6-0.8-0.6-1.4c0-0.6,0.3-1.4,0.6-1.4
		c4.7-0.5,5.5-1.6,5.5-6.7l0-34.4c0-4.3-0.6-5.1-4.5-5.5c-0.3,0-0.6-0.8-0.6-1.4c0-0.6,0.3-1.3,0.6-1.3c3.8-1,9.3-3,12.2-4.8
		c0.3-0.2,0.8-0.6,1.4-0.6c1,0,1.4,0.4,1.4,0.8l-0.3,5.7c2.4-3.3,6.4-6,11-6c10.8,0,16.7,8.2,16.7,18.4
		C311.4,309.3,303.7,317.9,291.7,317.9z M291.2,285.7c-3.6,0-5.1,1.5-7.3,4.7l0,18.3c0,3.7,2.7,6.1,6.9,6.1c7.5,0,9.3-6.9,9.3-15.8
		C300.1,290.1,296.7,285.7,291.2,285.7z"/>
	<path class="st0" d="M348.6,295.8l-22.1,0c-0.1,1-0.2,2.4-0.2,3.9c0,8.9,3.9,12.7,10.2,12.7c4.3,0,9-2.5,11.1-5.2
		c0.2-0.3,1.7,0.7,1.7,1.8c0,0.2-0.1,0.4-0.2,0.6c-2.6,3.8-7.6,8.3-15.3,8.3c-10.6,0-18.7-8.3-18.7-18.5c0-10.5,7.3-19.2,18.7-19.2
		c10.5,0,16.4,7.3,16.4,14.4C350.1,295.4,349.5,295.8,348.6,295.8z M333.9,283.4c-3.9,0-6.3,3.9-7,9.4l8.8-0.2c3.2-0.1,4-0.8,4-2.7
		C339.8,286.3,337.7,283.4,333.9,283.4z"/>
	<path class="st0" d="M380.7,290.7c-3.9,0-4.4-3.3-7-3.3c-2.3,0-3.7,1.5-5.1,3.6l0,16.1c0,5.1,1.6,6.2,6.3,6.7
		c0.3,0.1,0.6,0.8,0.6,1.4c0,0.6-0.3,1.4-0.6,1.4c-3.4,0-7.6-0.5-11.5-0.5c-3.8,0-7.3,0.5-10.7,0.5c-0.3,0-0.6-0.8-0.6-1.4
		c0-0.6,0.3-1.4,0.6-1.4c4.7-0.6,5.5-1.6,5.5-6.7l0-13.7c0-4.3-0.6-5.1-4.5-5.5c-0.3,0-0.6-0.7-0.6-1.3c0-0.6,0.3-1.4,0.6-1.4
		c3.8-1,9.3-3,12.2-4.8c0.3-0.2,0.8-0.6,1.4-0.6c1,0,1.5,0.4,1.5,0.9l-0.4,6.4c3-3.9,6.7-6.8,10.5-6.8c3.9,0,6.4,2.3,6.4,5.4
		C385.4,288.5,383.4,290.7,380.7,290.7z"/>
	<path class="st0" d="M387.5,317.9c-3.2,0-6-2.8-6-6c0-3.3,2.8-6,6-6c3.3,0,6,2.7,6,6C393.5,315.1,390.8,317.9,387.5,317.9z"/>
</g>
<g>
	<path class="st0" d="M302.3,196.2c-1.4-2.4-4.4-4.4-5.5-3.7c-6.8,7.2-13.3,11.6-24.2,11.6c-15,0-25.2-6.5-56.9-41.9l41.9-52.5
		c11.2-14,20.4-20.8,46-24.5c1.4-0.3,2.7-3.4,2.7-6.1c0-2.7-1.4-6.1-2.7-6.1c-16,0-25.6,2-46.7,2c-21.1,0-34.7-2-50.4-2
		c-1.7,0-2.7,3.4-2.7,6.1c0,2.7,1,6.1,2.7,6.1c26.6,2,31,7.8,31,15.3c0,12.9-10.6,26.2-30.7,51.1l-52.8-59.6
		c25.6-14.6,41.6-30.3,41.6-48.7s-17-38.5-48-38.5c-38.8,0-63,27.3-63,56.6c0,15.7,7.2,27.9,19.8,40.2
		c-38.2,12.3-64.7,34.4-64.7,65.8c0,32.7,31.3,60.6,71.2,60.6c34.4,0,54.9-13.6,72.9-35.1c18.7,22.8,37.5,35.8,64.7,35.8
		c23.2,0,43.6-11.6,54.9-25.9C304.3,201.6,303.6,198.2,302.3,196.2z M150.3,18.7c15.3,0,21.5,11.9,21.5,24.9
		c0,10.6-6.5,26.9-25.6,38.8c-11.9-13.6-18.4-24.9-18.4-35.8C127.8,28.6,138.7,18.7,150.3,18.7z M131.9,202.6c-27.6,0-45-19.4-45-47
		c0-19.4,11.6-34.4,25.2-44.6l63,71.9C162.6,196.2,149,202.6,131.9,202.6z"/>
	<path class="st0" d="M90.2,98.7C80,86.7,75.3,74.8,75.3,61.2c0-16.6,6.7-32.1,18.9-43.8c7.5-7.2,16.7-12.4,26.9-15.6
		c-7.5-1.4-16.7-2.1-22.2-1.6C90,1,62.1,7.2,54,9.7c-6.3,2-10.4,8.9-11.4,11c0.5-1.5-1-2.2-1-2.2c-8.1,19.4-24.9,20-33.5,28.4
		c-8.6,8.3-6.6,14.9-6.3,13.3c0.3-1.5,3.5-1,5.5-0.3c2,0.8,7.5,2,10.4,0.5s25-1.7,25-1.7c2,2.8,9.3,3.3,12.2,4.6
		c2.9,1.3,10.2,9.1,10.2,9.1c-25.4,24.4-26,44-25.8,63.7C48.9,120.6,66.1,107.9,90.2,98.7z"/>
	<path class="st0" d="M393.7,127.1c0,0-6.5,2.4-16,5.3c-22.6-14.7-44-6.4-44-6.4c13.2-6.5,19.7-7.3,19.7-7.3
		c-28.8-15.5-55-22.8-80.3-18.3l-48.8,60.7c29.3,32.3,37.5,35.8,48.6,35.8c8.8,0,13.7-3.4,19.6-9.6l0.5-0.5l0.6-0.4
		c1.2-0.8,2.6-1.2,4-1.2c4.1,0,8.3,3.4,10.3,6.9c2.2,3.4,4,9.8,0.5,13.9c-1.8,2.3-3.8,4.5-6,6.6c43.1-14.4,81.1-56.3,81.1-56.3
		c-2.4,0.4-4.7,0.6-7,0.7C387.3,146.1,394.5,135.5,393.7,127.1z"/>
</g>
</svg>
