<svg viewBox="0 0 573.1 95.7">
<g>
	<path class="st0" d="M222.1,72.5c-3,0.3-9.6,2.2-12.1,3.4c-0.4,0.2-1,0.5-1.6,0.5c-0.6,0-1-0.5-1-0.9l0-4.6
		c-2.2,3-5.8,5.1-10.7,5.1c-10.2,0-17.2-8.2-17.2-18.5c0-11.9,8.3-19.3,19.3-19.3c3.1,0,5.9,1,8.4,2.9l0-11.2c0-4.3-1.1-5.1-5-5.5
		c-0.3-0.1-0.6-0.8-0.6-1.4c0-0.6,0.3-1.4,0.6-1.4c4.5-1,10-3.1,13.1-4.9c0.3-0.2,0.8-0.6,1.4-0.6c1,0,1.5,0.4,1.5,0.9
		c-0.2,3.3-0.6,9.5-0.6,13.7l0,34c0,3.9,0.9,4.6,4.4,5.1c0.4,0,0.6,0.8,0.6,1.4C222.7,71.9,222.5,72.4,222.1,72.5z M207.3,47.3
		c0-2.7-3.1-5.5-7.1-5.5c-5.8,0-9.3,4.5-9.3,15.8c0,8.9,3.3,14.1,8.3,14.1c3.6,0,6-2,8-5.2L207.3,47.3z"/>
	<path class="st0" d="M244.6,74.8c-3.4,0-7.1-0.4-10.9-0.4c-3.9,0-7.1,0.4-10.4,0.4c-0.3,0-0.6-0.8-0.6-1.4c0-0.6,0.3-1.4,0.6-1.4
		c4.3-0.5,5.5-1.6,5.5-6.7l0-13.4c0-4.3-1.1-5.1-5-5.5c-0.3-0.1-0.6-0.8-0.6-1.4c0-0.6,0.3-1.4,0.6-1.4c4.5-1,10-3.1,13.2-5
		c0.3-0.2,0.8-0.6,1.4-0.6c1,0,1.4,0.4,1.4,0.9c-0.2,3.3-0.6,9.5-0.6,13.7l0,12.6c0,5.1,1.1,6.3,5.5,6.7c0.3,0.1,0.6,0.9,0.6,1.4
		C245.3,74,245,74.8,244.6,74.8z M233.7,30.6c-3.1,0-5.8-2.7-5.8-5.9c0-3.1,2.7-5.7,5.8-5.7c3.1,0,5.7,2.6,5.7,5.7
		C239.4,27.9,236.9,30.6,233.7,30.6z"/>
	<path class="st0" d="M284.8,42.5c-4.1,0.5-5.5,1.9-7.5,6.1l-12.5,26.9c-0.2,0.4-0.9,0.6-1.7,0.6c-1,0-1.5-0.3-1.7-0.6l-12.3-26.9
		c-1.7-3.8-3-5.6-7.1-6.1c-0.4-0.1-0.6-0.9-0.6-1.4c0-0.6,0.2-1.4,0.6-1.4c3.4,0,6.5,0.5,10.3,0.5c3.9,0,7.2-0.5,10.6-0.5
		c0.3,0,0.6,0.8,0.6,1.4c0,0.6-0.3,1.4-0.6,1.4c-2.8,0.3-4.1,0.9-4.1,2.4c0,1.1,0.4,2.2,1,3.7l6.6,15.3l6.7-15.3
		c0.6-1.5,1-2.3,1-3.3c0-1.5-1.2-2.5-4.2-2.8c-0.3-0.1-0.6-0.9-0.6-1.4c0-0.6,0.3-1.4,0.6-1.4c3.4,0,4.8,0.5,7.9,0.5
		c1.8,0,4.2-0.5,7-0.5c0.3,0,0.6,0.8,0.6,1.4C285.4,41.6,285.1,42.4,284.8,42.5z"/>
	<path class="st0" d="M317.8,53.9l-22.1,0c-0.1,1-0.2,2.4-0.2,3.9c0,8.9,3.9,12.7,10.2,12.7c4.3,0,9-2.5,11.1-5.2
		c0.2-0.3,1.7,0.7,1.7,1.8c0,0.2-0.1,0.4-0.2,0.6c-2.6,3.8-7.6,8.3-15.3,8.3c-10.6,0-18.7-8.3-18.7-18.5c0-10.5,7.3-19.2,18.7-19.2
		c10.5,0,16.4,7.3,16.4,14.4C319.4,53.5,318.7,53.9,317.8,53.9z M303.2,41.5c-3.9,0-6.3,3.9-7,9.4l8.8-0.2c3.2-0.1,4-0.8,4-2.7
		C309,44.4,306.9,41.5,303.2,41.5z"/>
	<path class="st0" d="M365.3,72.6c-3,0.3-9.6,2.2-12.1,3.4c-0.4,0.2-1,0.5-1.6,0.5c-0.6,0-1-0.5-1-0.9l0-4.6
		c-2.2,3-5.8,5.1-10.7,5.1c-10.2,0-17.2-8.2-17.2-18.5c0-11.9,8.3-19.3,19.3-19.3c3.1,0,5.9,1,8.4,2.9l0-11.2c0-4.3-1.1-5.1-5-5.5
		c-0.3-0.1-0.6-0.8-0.6-1.4s0.3-1.4,0.6-1.4c4.5-1,10-3.1,13.1-4.9c0.3-0.2,0.8-0.6,1.4-0.6c1,0,1.5,0.4,1.5,0.9
		c-0.2,3.3-0.6,9.6-0.6,13.7l0,34c0,3.9,0.9,4.6,4.4,5.1c0.4,0,0.6,0.8,0.6,1.4C366,72,365.7,72.5,365.3,72.6z M350.5,47.4
		c0-2.7-3.1-5.5-7.1-5.5c-5.8,0-9.3,4.5-9.3,15.8c0,8.9,3.3,14.1,8.3,14.1c3.6,0,6-2,8-5.2L350.5,47.4z"/>
	<path class="st0" d="M404.2,72.1c-1.9,2.3-5.8,3.9-9.4,3.9c-3.7,0-6.3-1.9-7.1-4.8c-2.5,3.2-6.5,4.9-11.5,4.9
		c-5.5,0-9.5-3.2-9.5-8.1c0-7.1,10.4-10.8,21.1-13.3l0.2-7.1c0.1-3.5-1.4-5.3-4.2-5.3c-2.4,0-5.1,1.2-5.1,3.6
		c-0.3,5.1-2.5,7.2-5.9,7.2c-2.8,0-4.6-1.8-4.6-4.4c0-4.8,10.1-10.3,18.7-10.3c7.6,0,11.3,4.3,11.1,11.9l-0.5,16
		c-0.1,3.9,1.5,4.5,2.7,4.5c1.1,0,2-0.6,2.8-1.2c0.4-0.3,1.5,0.8,1.5,1.8C404.4,71.7,404.4,71.8,404.2,72.1z M377.3,66.1
		c0,3.2,1.6,5.1,4.3,5.1c2.3,0,5.1-1.3,5.8-4.3l0.3-9.5C381.4,59,377.3,61.2,377.3,66.1z"/>
	<path class="st0" d="M426.2,76.1c-3.6,0-5.8-0.6-7.9-1.8l0,11.7c0,5.1,1,6.3,5.8,6.7c0.3,0.1,0.6,0.9,0.6,1.4
		c0,0.6-0.3,1.4-0.6,1.4c-3.5,0-7.1-0.4-11-0.4c-3.9,0-7.3,0.4-10.7,0.4c-0.3,0-0.6-0.8-0.6-1.4c0-0.6,0.3-1.4,0.6-1.4
		c4.7-0.5,5.5-1.6,5.5-6.7l0-34.4c0-4.3-0.6-5.1-4.5-5.5c-0.3,0-0.6-0.8-0.6-1.4c0-0.6,0.3-1.3,0.6-1.3c3.8-1,9.3-3,12.2-4.8
		c0.3-0.2,0.8-0.6,1.4-0.6c1,0,1.4,0.4,1.4,0.8l-0.3,5.7c2.4-3.3,6.4-6,11-6c10.8,0,16.7,8.2,16.7,18.4
		C445.8,67.5,438.2,76.1,426.2,76.1z M425.6,43.9c-3.6,0-5.1,1.5-7.3,4.7l0,18.3c0,3.7,2.7,6.1,6.9,6.1c7.5,0,9.3-6.9,9.3-15.8
		C434.5,48.3,431.2,43.9,425.6,43.9z"/>
	<path class="st0" d="M471.3,76.1c-3.6,0-5.8-0.6-7.9-1.8l0,11.7c0,5.1,1,6.3,5.8,6.7c0.3,0.1,0.6,0.9,0.6,1.4
		c0,0.6-0.3,1.4-0.6,1.4c-3.5,0-7.1-0.4-11-0.4c-3.9,0-7.3,0.4-10.7,0.4c-0.3,0-0.6-0.8-0.6-1.4c0-0.6,0.3-1.4,0.6-1.4
		c4.7-0.5,5.5-1.6,5.5-6.7l0-34.4c0-4.3-0.6-5.1-4.5-5.5c-0.3,0-0.6-0.8-0.6-1.4s0.3-1.3,0.6-1.3c3.8-1,9.3-3,12.2-4.8
		c0.3-0.2,0.8-0.6,1.4-0.6c1,0,1.4,0.4,1.4,0.8l-0.3,5.7c2.4-3.3,6.4-6,11-6c10.8,0,16.7,8.2,16.7,18.4
		C490.9,67.5,483.3,76.1,471.3,76.1z M470.7,43.9c-3.6,0-5.1,1.5-7.3,4.7l0,18.3c0,3.7,2.7,6.1,6.9,6.1c7.5,0,9.3-6.9,9.3-15.8
		C479.6,48.3,476.3,43.9,470.7,43.9z"/>
	<path class="st0" d="M528.2,54l-22.1,0c-0.1,1-0.2,2.4-0.2,3.9c0,8.9,3.9,12.7,10.2,12.7c4.3,0,9-2.5,11.1-5.2
		c0.2-0.3,1.7,0.7,1.7,1.8c0,0.2-0.1,0.4-0.2,0.6c-2.6,3.8-7.6,8.3-15.3,8.3c-10.6,0-18.7-8.3-18.7-18.5c0-10.5,7.3-19.2,18.7-19.2
		c10.5,0,16.4,7.3,16.4,14.4C529.7,53.6,529.1,54,528.2,54z M513.5,41.6c-3.9,0-6.3,3.9-7,9.4l8.8-0.2c3.2-0.1,4-0.8,4-2.7
		C519.4,44.5,517.3,41.6,513.5,41.6z"/>
	<path class="st0" d="M560.3,49c-3.9,0-4.4-3.3-7-3.3c-2.3,0-3.7,1.5-5.1,3.6l0,16.1c0,5.1,1.6,6.2,6.3,6.7c0.3,0.1,0.6,0.8,0.6,1.4
		c0,0.6-0.3,1.4-0.6,1.4c-3.4,0-7.6-0.5-11.5-0.5c-3.8,0-7.3,0.5-10.7,0.5c-0.3,0-0.6-0.8-0.6-1.4c0-0.6,0.3-1.4,0.6-1.4
		c4.7-0.6,5.5-1.6,5.5-6.7l0-13.7c0-4.3-0.6-5.1-4.5-5.5c-0.3,0-0.6-0.7-0.6-1.3s0.3-1.4,0.6-1.4c3.8-1,9.3-3,12.2-4.8
		c0.3-0.2,0.8-0.6,1.4-0.6c1,0,1.5,0.4,1.5,0.9l-0.4,6.4c3-3.9,6.7-6.8,10.5-6.8c3.9,0,6.4,2.3,6.4,5.4
		C564.9,46.7,562.9,49,560.3,49z"/>
	<path class="st0" d="M567.1,76.1c-3.2,0-6-2.8-6-6c0-3.3,2.8-6,6-6c3.3,0,6,2.7,6,6C573.1,73.3,570.4,76.1,567.1,76.1z"/>
</g>
<g>
	<path class="st0" d="M123.7,80.6c-0.6-1-1.8-1.8-2.2-1.5c-2.8,2.9-5.5,4.8-9.9,4.8c-6.2,0-10.4-2.7-23.4-17.2l17.2-21.6
		c4.6-5.7,8.4-8.5,18.9-10.1c0.6-0.1,1.1-1.4,1.1-2.5c0-1.1-0.6-2.5-1.1-2.5c-6.6,0-10.5,0.8-19.2,0.8c-8.7,0-14.3-0.8-20.7-0.8
		c-0.7,0-1.1,1.4-1.1,2.5c0,1.1,0.4,2.5,1.1,2.5c10.9,0.8,12.7,3.2,12.7,6.3c0,5.3-4.3,10.8-12.6,21L62.8,37.8
		c10.5-6,17.1-12.5,17.1-20s-7-15.8-19.7-15.8c-16,0-25.9,11.2-25.9,23.2c0,6.4,2.9,11.5,8.1,16.5c-15.7,5-26.6,14.1-26.6,27
		c0,13.4,12.9,24.9,29.3,24.9c14.1,0,22.5-5.6,30-14.4c7.7,9.4,15.4,14.7,26.6,14.7c9.5,0,17.9-4.8,22.5-10.6
		C124.5,82.9,124.2,81.5,123.7,80.6z M61.2,7.7c6.3,0,8.8,4.9,8.8,10.2c0,4.3-2.7,11.1-10.5,16C54.6,28.3,52,23.6,52,19.2
		C52,11.7,56.5,7.7,61.2,7.7z M53.7,83.3c-11.3,0-18.5-8-18.5-19.3c0-8,4.8-14.1,10.4-18.3l25.9,29.5C66.3,80.6,60.7,83.3,53.7,83.3
		z"/>
	<path class="st0" d="M36.5,40.6c-4.2-4.9-6.1-9.8-6.1-15.4c0-6.8,2.8-13.2,7.8-18C41.2,4.2,45,2,49.3,0.7c-3.1-0.6-6.9-0.9-9.1-0.7
		C36.5,0.4,25,3,21.6,4C19,4.8,17.4,7.7,17,8.5c0.2-0.6-0.4-0.9-0.4-0.9c-3.3,8-10.2,8.2-13.8,11.7c-3.6,3.4-2.7,6.1-2.6,5.5
		c0.1-0.6,1.4-0.4,2.3-0.1c0.8,0.3,3.1,0.8,4.3,0.2C7.9,24.2,17,24.1,17,24.1c0.8,1.1,3.8,1.4,5,1.9c1.2,0.5,4.2,3.7,4.2,3.7
		c-10.4,10-10.7,18.1-10.6,26.2C19.5,49.6,26.6,44.3,36.5,40.6z"/>
	<path class="st0" d="M161.2,52.2c0,0-2.7,1-6.6,2.2c-9.3-6.1-18.1-2.6-18.1-2.6c5.4-2.7,8.1-3,8.1-3c-11.8-6.4-22.6-9.4-33-7.5
		l-20.1,25c12,13.3,15.4,14.7,20,14.7c3.6,0,5.6-1.4,8.1-4l0.2-0.2l0.2-0.2c0.5-0.3,1.1-0.5,1.7-0.5c1.7,0,3.4,1.4,4.2,2.8
		c0.9,1.4,1.7,4,0.2,5.7c-0.8,1-1.6,1.9-2.5,2.7c17.7-5.9,33.3-23.1,33.3-23.1c-1,0.2-1.9,0.2-2.9,0.3
		C158.6,60.1,161.6,55.7,161.2,52.2z"/>
</g>
</svg>
